<svg width="45" height="45" viewBox="0 0 45 45" fill="none" xmlns="http://www.w3.org/2000/svg">
<rect x="2" y="2" width="41" height="41" rx="13" stroke="white" stroke-width="4"/>
<path d="M18.6744 18.3164C18.5915 17.5411 18.2423 16.9374 17.6268 16.5053C17.0172 16.0733 16.2241 15.8572 15.2475 15.8572C14.561 15.8572 13.9721 15.9608 13.4808 16.168C12.9896 16.3751 12.6138 16.6562 12.3533 17.0114C12.0929 17.3665 11.9598 17.7719 11.9538 18.2276C11.9538 18.6064 12.0397 18.9349 12.2113 19.2131C12.3888 19.4912 12.6286 19.728 12.9304 19.9233C13.2322 20.1127 13.5666 20.2725 13.9336 20.4027C14.3005 20.5329 14.6705 20.6424 15.0433 20.7312L16.7479 21.1573C17.4344 21.3171 18.0943 21.5331 18.7276 21.8054C19.3668 22.0777 19.938 22.4209 20.4411 22.8352C20.95 23.2495 21.3525 23.7496 21.6484 24.3356C21.9444 24.9215 22.0923 25.6081 22.0923 26.3952C22.0923 27.4606 21.8201 28.3987 21.2756 29.2095C20.7311 30.0144 19.9439 30.6448 18.9141 31.1005C17.8902 31.5503 16.6502 31.7752 15.1942 31.7752C13.7797 31.7752 12.5516 31.5562 11.5099 31.1183C10.4742 30.6803 9.66335 30.0411 9.07741 29.2006C8.4974 28.3602 8.18371 27.3363 8.13636 26.1289H11.3768C11.4241 26.7622 11.6194 27.2889 11.9627 27.7092C12.306 28.1294 12.7528 28.4431 13.3033 28.6502C13.8596 28.8574 14.4811 28.9609 15.1676 28.9609C15.8838 28.9609 16.5111 28.8544 17.0497 28.6413C17.5942 28.4223 18.0204 28.1205 18.3281 27.7358C18.6359 27.3452 18.7927 26.8894 18.7987 26.3686C18.7927 25.8951 18.6536 25.5045 18.3814 25.1967C18.1091 24.883 17.7274 24.6226 17.2362 24.4155C16.7508 24.2024 16.1826 24.013 15.5316 23.8473L13.4631 23.3146C11.9657 22.9299 10.782 22.3469 9.91193 21.5657C9.04782 20.7785 8.61577 19.7339 8.61577 18.4318C8.61577 17.3606 8.90578 16.4225 9.4858 15.6175C10.0717 14.8126 10.8678 14.1882 11.8739 13.7443C12.8801 13.2945 14.0194 13.0696 15.2919 13.0696C16.5822 13.0696 17.7126 13.2945 18.6832 13.7443C19.6598 14.1882 20.4263 14.8067 20.9826 15.5998C21.5389 16.387 21.826 17.2925 21.8438 18.3164H18.6744ZM29.1416 31.7109C28.1989 31.7109 27.3551 31.4688 26.6104 30.9844C25.8656 30.5 25.277 29.7969 24.8447 28.875C24.4124 27.9531 24.1963 26.8333 24.1963 25.5156C24.1963 24.1823 24.415 23.0573 24.8525 22.1406C25.2952 21.2187 25.8916 20.5234 26.6416 20.0547C27.3916 19.5807 28.2275 19.3438 29.1494 19.3438C29.8525 19.3438 30.4307 19.4635 30.8838 19.7031C31.3369 19.9375 31.6963 20.2214 31.9619 20.5547C32.2275 20.8828 32.4333 21.1927 32.5791 21.4844H32.6963V15.5H35.5322V31.5H32.751V29.6094H32.5791C32.4333 29.901 32.2223 30.2109 31.9463 30.5391C31.6702 30.862 31.3057 31.138 30.8525 31.3672C30.3994 31.5964 29.8291 31.7109 29.1416 31.7109ZM29.9307 29.3906C30.5296 29.3906 31.04 29.2292 31.4619 28.9062C31.8838 28.5781 32.2041 28.1224 32.4229 27.5391C32.6416 26.9557 32.751 26.276 32.751 25.5C32.751 24.724 32.6416 24.0495 32.4229 23.4766C32.2093 22.9036 31.8916 22.4583 31.4697 22.1406C31.0531 21.8229 30.54 21.6641 29.9307 21.6641C29.3005 21.6641 28.7744 21.8281 28.3525 22.1562C27.9307 22.4844 27.613 22.9375 27.3994 23.5156C27.1859 24.0937 27.0791 24.7552 27.0791 25.5C27.0791 26.25 27.1859 26.9193 27.3994 27.5078C27.6182 28.0911 27.9385 28.5521 28.3604 28.8906C28.7874 29.224 29.3109 29.3906 29.9307 29.3906Z" fill="white"/>
</svg>
